<svg width="512" height="512" xmlns="http://www.w3.org/2000/svg">
  <defs>
    <linearGradient id="grad1" x1="0%" y1="0%" x2="100%" y2="100%">
      <stop offset="0%" style="stop-color:#4f46e5;stop-opacity:1" />
      <stop offset="100%" style="stop-color:#7c3aed;stop-opacity:1" />
    </linearGradient>
  </defs>
  
  <!-- Background -->
  <rect width="512" height="512" rx="100" fill="url(#grad1)"/>
  
  <!-- Book/Dictionary Icon -->
  <g transform="translate(128, 128)">
    <!-- Open Book -->
    <path d="M 128 50 Q 128 30 110 30 L 30 30 Q 10 30 10 50 L 10 220 Q 10 240 30 240 L 110 240 Q 128 240 128 220 Z" 
          fill="#ffffff" opacity="0.9"/>
    <path d="M 128 50 Q 128 30 146 30 L 226 30 Q 246 30 246 50 L 246 220 Q 246 240 226 240 L 146 240 Q 128 240 128 220 Z" 
          fill="#ffffff" opacity="0.9"/>
    
    <!-- Book Pages Lines -->
    <line x1="30" y1="80" x2="100" y2="80" stroke="#4f46e5" stroke-width="4" opacity="0.6"/>
    <line x1="30" y1="110" x2="100" y2="110" stroke="#4f46e5" stroke-width="4" opacity="0.6"/>
    <line x1="30" y1="140" x2="100" y2="140" stroke="#4f46e5" stroke-width="4" opacity="0.6"/>
    
    <line x1="156" y1="80" x2="226" y2="80" stroke="#4f46e5" stroke-width="4" opacity="0.6"/>
    <line x1="156" y1="110" x2="226" y2="110" stroke="#4f46e5" stroke-width="4" opacity="0.6"/>
    <line x1="156" y1="140" x2="226" y2="140" stroke="#4f46e5" stroke-width="4" opacity="0.6"/>
    
    <!-- Stars for "learning" -->
    <circle cx="50" cy="180" r="8" fill="#fbbf24"/>
    <circle cx="80" cy="180" r="8" fill="#fbbf24"/>
    <circle cx="176" cy="180" r="8" fill="#fbbf24"/>
    <circle cx="206" cy="180" r="8" fill="#fbbf24"/>
  </g>
</svg>
